<?xml version="1.0" encoding="utf-8"?>
<!-- Generator: Adobe Illustrator 14.0.0, SVG Export Plug-In . SVG Version: 6.00 Build 43363)  -->
<!DOCTYPE svg PUBLIC "-//W3C//DTD SVG 1.1//EN" "http://www.w3.org/Graphics/SVG/1.1/DTD/svg11.dtd">
<svg version="1.1" id="Ebene_1" xmlns="http://www.w3.org/2000/svg" xmlns:xlink="http://www.w3.org/1999/xlink" x="0px" y="0px"
	 width="773.269px" height="292.636px" viewBox="0 0 773.269 292.636" enable-background="new 0 0 773.269 292.636"
	 xml:space="preserve">
<g>
	<path fill="#C9AB52" d="M770.467,106.265c0.068,0.086,0.209,0.147,0.321,0.137c0.168-0.031,0.014,0.005,0.007,0.014l-0.23,0.084
		l-0.459,0.163l-0.921,0.313c-0.614,0.205-1.232,0.396-1.852,0.583c-1.239,0.37-2.485,0.719-3.743,1.021
		c-2.513,0.618-5.056,1.122-7.622,1.515c-5.132,0.778-10.373,1.071-15.621,0.668c-5.232-0.446-10.511-1.524-15.434-3.723
		c-2.487-1.032-4.811-2.448-7.054-3.974c-2.159-1.639-4.255-3.41-6.027-5.478c-3.642-4.08-6.354-8.812-8.313-13.905l-0.382-0.953
		c-0.067-0.188-0.118-0.245-0.204-0.571l-0.143-0.511c-0.179-0.666-0.336-1.319-0.486-1.976c-0.297-1.311-0.546-2.623-0.756-3.943
		c-0.422-2.639-0.695-5.303-0.795-7.991c-0.196-5.369,0.305-10.859,1.894-16.198c1.579-5.322,4.389-10.472,8.394-14.591l2.513,6.065
		l-27.213,0.472l-27.213,0.354c-18.142,0.225-36.284,0.512-54.426,0.63l-54.426,0.465l-54.426,0.273l-1.571,0.008l-1.464-0.874
		c-1.825-1.09-3.893-2.26-5.905-3.336c-2.024-1.102-4.087-2.152-6.156-3.193c-2.062-1.051-4.176-2.014-6.26-3.026l-6.35-2.851
		c-8.524-3.671-17.228-6.918-26.071-9.65c-17.661-5.544-35.967-8.831-54.259-9.172c-18.289,0.025-36.727,2.939-54.548,8.236
		c-8.912,2.637-17.729,5.706-26.349,9.286l-6.428,2.774c-2.112,0.988-4.253,1.926-6.345,2.954c-2.099,1.017-4.192,2.045-6.25,3.127
		c-2.053,1.06-4.136,2.198-6.046,3.299l-1.054,0.608l-1.016-0.017l-54.426-0.908l-27.213-0.403l-27.213-0.301
		c-18.142-0.164-36.284-0.282-54.426-0.323c-18.142-0.062-36.284,0.004-54.426,0.049l1.438-3.472
		c3.89,3.861,6.682,8.746,8.311,13.884c1.632,5.153,2.262,10.517,2.217,15.817c-0.024,2.653-0.221,5.296-0.566,7.92
		c-0.172,1.313-0.382,2.621-0.641,3.927c-0.13,0.654-0.269,1.306-0.428,1.969l-0.126,0.507c-0.074,0.3-0.125,0.372-0.185,0.556
		l-0.352,0.952c-1.804,5.096-4.37,9.889-7.903,14.07c-1.716,2.123-3.778,3.945-5.895,5.674c-2.203,1.615-4.502,3.131-6.984,4.266
		c-4.912,2.406-10.242,3.701-15.56,4.347c-5.332,0.597-10.685,0.516-15.954-0.062c-2.634-0.297-5.252-0.701-7.851-1.219
		c-2.624-0.535-5.121-1.123-7.816-1.982l4.126-2.597c-0.175,2.272-0.215,4.819-0.188,7.251c0.028,2.459,0.135,4.926,0.306,7.387
		c0.337,4.925,0.961,9.833,1.803,14.696c1.73,9.718,4.416,19.254,8.113,28.354c3.691,9.103,8.4,17.756,14.021,25.744
		c2.798,4.003,5.85,7.821,9.114,11.443c3.265,3.62,6.694,7.094,10.354,10.315c14.558,13.013,31.984,22.592,50.431,29.311
		c18.482,6.736,38.003,10.677,57.717,12.843c9.865,1.075,19.796,1.721,29.754,1.922c2.486,0.097,4.979,0.09,7.471,0.104
		c2.496,0.009,4.965,0.039,7.511,0.01l15.176-0.095l60.705-0.319l30.353-0.147l15.177-0.066l7.588-0.016l3.794-0.007l0.949-0.002
		l0.597,0.005l0.547,0.017l2.066,0.1c5.405,0.333,10.698,1.019,16.023,2.107c5.312,1.107,10.636,2.608,15.877,4.933
		c2.62,1.146,5.211,2.565,7.722,4.25c2.51,1.676,4.936,3.727,7.058,6.219c2.116,2.479,3.947,5.393,5.122,8.604
		c1.158,3.215,1.67,6.583,1.719,9.85h-13.941c0.052-3.267,0.566-6.634,1.727-9.847c1.179-3.209,3.021-6.114,5.14-8.584
		c2.126-2.482,4.555-4.523,7.067-6.188c2.513-1.674,5.104-3.082,7.724-4.217c5.242-2.298,10.558-3.795,15.865-4.894
		c5.319-1.078,10.607-1.768,16.007-2.075l2.062-0.092l0.546-0.015l0.593-0.003l0.949,0.005l3.794,0.022l7.589,0.043l15.177,0.088
		l30.353,0.209l60.704,0.518l15.176,0.134c2.545,0.043,5.019,0.026,7.518,0.031c2.495,0.001,4.992,0.021,7.482-0.062
		c9.976-0.146,19.93-0.735,29.825-1.758c9.896-1.022,19.733-2.512,29.438-4.565c9.708-2.033,19.282-4.653,28.597-7.976
		c2.35-0.78,4.622-1.747,6.934-2.623c2.294-0.918,4.549-1.922,6.815-2.903c4.469-2.09,8.921-4.237,13.183-6.719
		c2.17-1.177,4.241-2.51,6.358-3.776c1.04-0.66,2.06-1.353,3.091-2.026c1.037-0.669,2.057-1.359,3.05-2.089
		c4.058-2.804,7.89-5.914,11.608-9.15c14.807-13.028,26.589-29.53,34.166-47.954c3.797-9.203,6.634-18.836,8.472-28.682
		c0.895-4.926,1.598-9.898,2.007-14.902c0.207-2.501,0.349-5.009,0.41-7.52c0.037-1.255,0.039-2.51,0.031-3.766l-0.041-1.88
		l-0.037-0.938l-0.024-0.467C770.176,106.208,770.316,106.353,770.467,106.265z M771.159,105.164
		c0.181,0.227,0.352,0.686,0.359,0.965l0.052,0.478l0.091,0.954l0.147,1.908c0.079,1.272,0.147,2.545,0.181,3.818
		c0.079,2.546,0.076,5.095,0.008,7.643c-0.132,5.097-0.558,10.188-1.241,15.251c-1.402,10.116-3.773,20.143-7.301,29.797
		c-3.514,9.656-8.133,18.945-13.771,27.608c-2.802,4.344-5.908,8.495-9.242,12.455c-3.34,3.954-6.854,7.778-10.645,11.316
		c-15.059,14.302-33.281,25.047-52.537,32.506c-9.632,3.764-19.527,6.792-29.548,9.206c-10.028,2.395-20.183,4.159-30.377,5.461
		c-10.196,1.297-20.438,2.146-30.684,2.537c-2.562,0.145-5.122,0.186-7.684,0.245c-2.558,0.056-5.14,0.132-7.652,0.148
		l-15.165,0.134l-60.658,0.518l-30.328,0.208l-15.164,0.088l-7.582,0.044l-3.791,0.022l-0.948,0.005l-0.354,0.005l-0.401,0.016
		l-1.726,0.099c-9.386,0.694-19.036,2.444-27.097,6.025c-2.018,0.885-3.868,1.935-5.557,3.069c-1.697,1.132-3.15,2.412-4.298,3.783
		c-1.15,1.372-2.041,2.811-2.605,4.359c-0.545,1.559-0.806,3.235-0.857,5.026h-13.941c-0.055-1.791-0.319-3.467-0.866-5.023
		c-0.569-1.546-1.47-2.976-2.625-4.339c-1.152-1.361-2.608-2.632-4.307-3.752c-1.689-1.125-3.541-2.163-5.558-3.037
		c-8.059-3.53-17.692-5.301-27.068-5.954l-1.721-0.091l-0.401-0.014l-0.351-0.003l-0.948-0.002l-3.791-0.007l-7.582-0.016
		l-15.164-0.066l-30.328-0.147l-60.658-0.319l-15.165-0.095c-2.51-0.003-5.098-0.064-7.659-0.106
		c-2.565-0.046-5.129-0.072-7.696-0.203c-10.262-0.337-20.527-1.13-30.754-2.374c-20.44-2.477-40.805-6.92-60.242-14.365
		c-2.445-0.878-4.824-1.95-7.232-2.93c-2.393-1.022-4.751-2.137-7.116-3.229c-4.668-2.325-9.304-4.729-13.754-7.476
		c-2.263-1.306-4.421-2.791-6.621-4.2c-1.083-0.732-2.145-1.499-3.217-2.247c-1.077-0.742-2.137-1.509-3.169-2.314
		c-4.214-3.105-8.193-6.53-12.036-10.087c-3.856-3.549-7.414-7.415-10.808-11.4c-3.387-3.995-6.538-8.189-9.407-12.563
		c-5.762-8.732-10.499-18.109-14.12-27.867c-3.628-9.758-6.149-19.881-7.66-30.125c-0.736-5.126-1.24-10.282-1.445-15.456
		c-0.104-2.587-0.142-5.179-0.097-7.775c0.052-2.624,0.15-5.138,0.443-7.901l0.414-3.901l3.713,1.304
		c2.162,0.759,4.633,1.434,7.011,1.984c2.406,0.557,4.84,0.999,7.286,1.327c4.891,0.653,9.833,0.834,14.69,0.405
		c4.84-0.478,9.623-1.531,13.968-3.542c2.206-0.94,4.225-2.222,6.182-3.577c1.876-1.461,3.694-3.025,5.226-4.868
		c3.142-3.591,5.552-7.93,7.226-12.447l0.33-0.842c0.044-0.118,0.137-0.336,0.132-0.35l0.112-0.422
		c0.148-0.58,0.284-1.178,0.413-1.777c0.256-1.2,0.47-2.418,0.649-3.64c0.357-2.445,0.578-4.914,0.637-7.378
		c0.1-4.922-0.372-9.871-1.834-14.493c-1.443-4.617-3.867-8.875-7.238-12.261l-3.469-3.483l4.907,0.012
		c18.142,0.044,36.284,0.112,54.426,0.049c18.142-0.042,36.284-0.16,54.426-0.324l27.213-0.301l27.213-0.403l54.426-0.908
		l-2.07,0.591c2.154-1.347,4.198-2.552,6.321-3.745c2.103-1.199,4.231-2.337,6.366-3.464c2.13-1.139,4.302-2.183,6.453-3.278
		l6.541-3.094c8.78-4.002,17.792-7.524,27.005-10.504c9.189-3.056,18.643-5.387,28.221-7.176l7.217-1.219
		c2.423-0.307,4.861-0.539,7.293-0.81l3.651-0.391l3.677-0.171l7.361-0.319l7.367,0.195l3.684,0.11l3.66,0.331
		c2.438,0.231,4.885,0.423,7.318,0.69l7.253,1.089c9.628,1.638,19.163,3.786,28.427,6.734c9.282,2.886,18.407,6.229,27.283,10.141
		l6.619,3.018c2.179,1.071,4.378,2.091,6.537,3.206c2.164,1.104,4.323,2.219,6.46,3.398c2.163,1.176,4.224,2.349,6.462,3.708
		l-3.034-0.866l54.426,0.273l54.426,0.465c18.142,0.119,36.284,0.405,54.426,0.63l27.213,0.354l27.213,0.472l8.67,0.15l-6.157,5.916
		c-3.256,3.127-5.662,7.121-7.155,11.554c-1.506,4.435-2.105,9.258-2.157,14.111c-0.017,2.43,0.127,4.876,0.407,7.308
		c0.141,1.215,0.316,2.428,0.533,3.625c0.109,0.597,0.226,1.194,0.354,1.77l0.096,0.418c-0.017-0.012,0.075,0.221,0.113,0.334
		l0.301,0.842c1.518,4.52,3.782,8.92,6.815,12.612c1.476,1.897,3.259,3.513,5.093,5.064c1.916,1.445,3.913,2.826,6.113,3.869
		c4.333,2.218,9.169,3.487,14.093,4.166c4.941,0.623,9.996,0.654,15.023,0.201c2.514-0.232,5.023-0.574,7.515-1.031
		c1.247-0.225,2.488-0.483,3.724-0.762c0.617-0.142,1.234-0.289,1.847-0.449l0.916-0.244l0.455-0.127l0.226-0.066
		c0.069-0.017-0.009-0.005,0.234-0.062C770.8,105.069,771.016,105.104,771.159,105.164z"/>
</g>
<rect x="1.258" y="56.714" fill="none" width="770.739" height="89.604"/>
<text transform="matrix(1 0 0 1 287.6294 124.1138)" fill="#C9AB52" font-family="'FrizQuadrataStd'" font-size="100">Nico</text>
<rect x="1.258" y="146.318" fill="none" width="772.01" height="83"/>
<text transform="matrix(1 0 0 1 180.2681 213.7173)" fill="#C9AB52" font-family="'FrizQuadrataStd'" font-size="100">Heiderich</text>
</svg>
